<?xml version="1.0" standalone="no"?>
<!DOCTYPE svg PUBLIC "-//W3C//DTD SVG 20010904//EN"
 "http://www.w3.org/TR/2001/REC-SVG-20010904/DTD/svg10.dtd">
<svg version="1.0" xmlns="http://www.w3.org/2000/svg"
 width="1175.000000pt" height="269.000000pt" viewBox="0 0 1175.000000 269.000000"
 preserveAspectRatio="xMidYMid meet">

<g transform="translate(0.000000,269.000000) scale(0.100000,-0.100000)"
fill="#000000" stroke="none">
<path d="M1285 2187 c-106 -28 -200 -98 -241 -179 -80 -158 -26 -471 108 -623
24 -28 38 -50 31 -52 -6 -2 -47 -28 -90 -56 -55 -37 -93 -73 -130 -121 -80
-107 -95 -155 -101 -320 -3 -110 -2 -140 9 -147 19 -12 1120 -11 1139 1 22 14
19 214 -4 295 -40 139 -144 262 -276 330 -19 10 -37 19 -39 21 -2 2 17 26 42
54 90 100 137 244 140 425 2 101 0 115 -26 170 -38 81 -94 136 -180 176 -67
31 -79 33 -202 36 -84 1 -148 -2 -180 -10z m317 -83 c102 -29 181 -117 195
-220 l6 -46 -214 4 -214 3 -45 29 c-52 34 -60 41 -85 79 -28 43 -66 34 -83
-18 -12 -39 -52 -85 -74 -85 -14 0 -1 64 22 111 60 117 142 157 324 158 73 1
129 -4 168 -15z m-345 -270 c71 -54 123 -64 344 -64 l202 0 -7 -60 c-13 -111
-63 -226 -128 -291 -18 -18 -58 -44 -88 -58 -75 -35 -201 -36 -275 -3 -116 53
-199 186 -220 355 l-7 55 43 20 c24 10 55 31 68 46 14 14 27 26 29 26 3 0 20
-12 39 -26z m76 -670 l77 -105 0 -150 0 -149 -236 0 -236 0 4 103 c3 93 6 109
37 171 40 82 115 159 196 203 33 18 65 32 70 32 6 0 45 -47 88 -105z m187 96
c0 -3 -18 -29 -39 -57 l-38 -53 -20 23 c-21 23 -63 83 -63 89 0 1 36 3 80 3
44 0 80 -2 80 -5z m191 -26 c153 -81 239 -232 239 -421 l0 -53 -237 0 -238 0
5 158 5 157 70 97 c39 54 74 98 79 98 4 0 39 -16 77 -36z"/>
<path d="M1597 1034 c-16 -16 -6 -45 19 -54 14 -6 69 -10 123 -10 104 0 136
11 129 46 -3 17 -14 19 -134 22 -71 1 -133 -1 -137 -4z"/>
<path d="M5369 1847 c-110 -46 -170 -112 -209 -228 -19 -54 -21 -81 -18 -174
3 -93 8 -119 30 -167 59 -128 163 -196 313 -206 92 -5 198 15 254 49 l31 19 0
173 c0 121 -4 177 -12 185 -8 8 -56 12 -150 12 l-138 0 0 -39 c0 -48 7 -51
116 -51 l84 0 0 -111 0 -110 -37 -15 c-102 -43 -225 -22 -297 50 -59 58 -86
133 -86 235 0 141 50 235 153 287 44 23 60 25 136 22 73 -2 95 -8 149 -36 35
-17 68 -30 73 -26 12 7 12 61 -1 83 -5 10 -33 29 -62 42 -43 18 -74 24 -163
26 -97 3 -116 1 -166 -20z"/>
<path d="M5972 1861 c-11 -7 -13 -65 -10 -302 4 -323 6 -332 70 -404 50 -58
100 -78 203 -83 118 -5 186 18 244 84 67 76 71 100 71 421 l0 283 -25 6 c-14
3 -36 3 -50 0 l-25 -6 0 -268 c0 -153 -5 -283 -10 -304 -14 -48 -55 -97 -97
-114 -39 -17 -121 -18 -160 -3 -41 15 -92 68 -104 109 -7 20 -14 148 -16 305
-4 187 -9 272 -17 277 -15 10 -58 10 -74 -1z"/>
<path d="M7822 1862 c-11 -7 -13 -66 -10 -303 4 -323 6 -332 70 -404 48 -56
100 -78 194 -83 115 -6 182 15 244 77 75 75 80 102 80 433 l0 278 -25 6 c-14
3 -36 3 -50 0 l-25 -6 0 -268 c0 -153 -5 -283 -10 -304 -23 -81 -89 -128 -180
-128 -61 0 -106 18 -141 56 -47 52 -52 81 -58 374 l-6 275 -35 3 c-19 1 -41
-2 -48 -6z"/>
<path d="M9873 1862 c-17 -11 -285 -753 -278 -770 3 -9 19 -12 52 -10 l46 3
35 103 34 102 161 -2 162 -3 36 -100 36 -100 52 -3 c46 -3 51 -1 51 18 0 11
-56 176 -125 366 -69 190 -125 349 -125 354 0 6 -9 19 -20 30 -21 21 -92 28
-117 12z m135 -349 l51 -143 -135 0 c-73 0 -134 2 -134 4 0 5 115 338 126 366
4 10 13 -3 24 -35 10 -27 41 -114 68 -192z"/>
<path d="M3147 1853 c-4 -3 -7 -179 -7 -390 l0 -384 48 3 47 3 3 148 3 147 84
0 c137 0 221 43 271 140 24 48 25 173 2 216 -53 98 -118 124 -308 124 -75 0
-140 -3 -143 -7z m292 -97 c44 -23 75 -93 67 -150 -15 -97 -67 -137 -188 -144
l-78 -5 0 163 0 163 83 -5 c49 -3 97 -12 116 -22z"/>
<path d="M3787 1853 c-4 -3 -7 -176 -7 -384 l0 -379 23 -5 c12 -3 108 -4 212
-3 l190 3 0 40 0 40 -162 3 -163 2 0 140 0 140 140 0 140 0 0 40 0 40 -140 0
-140 0 0 120 0 119 158 3 157 3 3 43 3 42 -204 0 c-112 0 -207 -3 -210 -7z"/>
<path d="M4387 1853 c-4 -3 -7 -179 -7 -390 l0 -383 50 0 50 0 2 324 3 323
160 -301 c88 -165 170 -311 182 -323 30 -31 117 -33 133 -3 7 12 9 145 8 387
l-3 368 -50 0 -50 0 -5 -305 -5 -305 -34 65 c-153 295 -269 509 -288 528 -18
18 -33 22 -81 22 -32 0 -62 -3 -65 -7z"/>
<path d="M6767 1853 c-4 -3 -7 -179 -7 -390 l0 -384 48 3 47 3 5 340 5 339 84
-219 c47 -121 106 -274 131 -340 l46 -120 49 0 49 0 135 338 136 337 5 -337 5
-338 50 0 50 0 3 368 c1 242 -1 375 -8 387 -9 17 -21 20 -71 20 -98 0 -76 35
-253 -395 l-95 -230 -19 45 c-11 25 -64 157 -118 294 -53 137 -106 258 -116
268 -14 14 -33 18 -86 18 -38 0 -72 -3 -75 -7z"/>
<path d="M8627 1853 c-4 -3 -7 -179 -7 -390 l0 -383 50 0 50 0 1 343 c0 329 1
341 17 302 9 -22 69 -175 132 -340 l116 -300 49 0 49 0 135 338 136 337 5
-337 5 -338 50 0 50 0 3 368 c1 242 -1 375 -8 387 -15 28 -131 29 -158 2 -9
-9 -71 -146 -136 -305 -65 -158 -122 -287 -126 -287 -4 0 -14 17 -23 38 -160
409 -214 539 -229 554 -14 14 -33 18 -86 18 -38 0 -72 -3 -75 -7z"/>
<path d="M10402 1841 c-4 -11 -6 -187 -4 -391 l2 -371 48 3 47 3 5 321 5 321
165 -309 c90 -171 173 -316 184 -324 11 -8 42 -14 68 -14 37 0 50 4 58 20 7
12 9 145 8 387 l-3 368 -50 0 -50 0 -5 -309 c-5 -308 -5 -309 -23 -270 -57
122 -285 542 -304 561 -18 19 -33 23 -83 23 -51 0 -62 -3 -68 -19z"/>
</g>
</svg>
